<?xml version="1.0" encoding="iso-8859-1"?>
<!-- Generator: Adobe Illustrator 19.0.0, SVG Export Plug-In . SVG Version: 6.00 Build 0)  -->
<svg version="1.1" id="Capa_1" xmlns="http://www.w3.org/2000/svg" xmlns:xlink="http://www.w3.org/1999/xlink" x="0px" y="0px"
	 viewBox="0 0 512 512" style="enable-background:new 0 0 512 512;" xml:space="preserve">
<path style="fill:#10BB67;" d="M331,225c0,8.401-6.599,15-15,15c-15.3,0-34.797,13.2-45,21.899V315c0,8.401-6.599,15-15,15
	s-14.993-6.599-14.993-15v-54.901C235.91,253.801,221.499,240,196,240c-8.401,0-15-6.599-15-15s6.599-15,15-15
	c18.9,0,33.607,5.4,45.007,12.001v-20.7c-26.1-24.901-51.306-37.8-51.606-37.8c-7.5-3.9-10.503-12.9-6.599-20.099
	c3.596-7.5,12.598-10.501,20.098-6.901c0.901,0.601,17.41,9,38.108,25.201V135c0-8.401,6.592-15,14.993-15c8.401,0,15,6.599,15,15
	v26.7c20.698-16.201,37.2-24.6,38.401-25.201c7.5-3.6,16.201-0.599,20.098,6.901c3.604,7.2,0.601,16.199-6.899,20.099
	c0,0-25.499,12.9-51.599,37.8V225c12.898-7.8,28.799-15,45-15C324.401,210,331,216.599,331,225z"/>
<path style="fill:#0CA656;" d="M256,330V120c8.401,0,15,6.599,15,15v26.7c20.698-16.201,37.2-24.6,38.401-25.201
	c7.5-3.6,16.201-0.599,20.098,6.901c3.604,7.2,0.601,16.199-6.899,20.099c0,0-25.499,12.9-51.599,37.8V225
	c12.898-7.8,28.799-15,45-15c8.401,0,15,6.599,15,15s-6.599,15-15,15c-15.3,0-34.797,13.2-45,21.899V315
	C271,323.401,264.401,330,256,330z"/>
<path style="fill:#32D736;" d="M265.902,3.9C263.2,1.199,259.6,0,256,0s-7.2,1.199-9.902,3.9C244.6,5.099,211,35.7,211,75
	s33.6,69.901,35.098,71.1c2.703,2.701,6.302,3.9,9.902,3.9s7.2-1.199,9.902-3.9C267.4,144.901,301,114.3,301,75
	S267.4,5.099,265.902,3.9z"/>
<g>
	<path style="fill:#10BB67;" d="M376,270c-39.375,0-69.902-33.56-71.162-34.995c-5.127-5.698-5.127-14.312,0-20.01
		C306.098,213.56,336.625,180,376,180s69.902,33.56,71.162,34.995c5.127,5.698,5.127,14.312,0,20.01
		C445.902,236.44,415.375,270,376,270z"/>
	<path style="fill:#10BB67;" d="M311.84,164.253c-7.266-2.388-11.572-9.844-9.99-17.329c0.381-1.875,10.02-46.216,44.15-65.903
		c34.131-19.658,77.344-5.845,79.16-5.273c7.266,2.388,11.572,9.844,9.99,17.329c-0.381,1.875-10.02,46.216-44.15,65.903
		C368.066,172.215,335.876,172.049,311.84,164.253z"/>
</g>
<g>
	<path style="fill:#32D736;" d="M136,270c-39.375,0-69.902-33.56-71.162-34.995c-5.127-5.698-5.127-14.312,0-20.01
		C66.098,213.56,96.625,180,136,180s69.902,33.56,71.162,34.995c5.127,5.698,5.127,14.312,0,20.01
		C205.902,236.44,175.375,270,136,270z"/>
	<path style="fill:#32D736;" d="M121.059,158.979c-34.102-19.688-43.77-64.014-44.15-65.889c-1.582-7.485,2.725-14.956,9.99-17.344
		c1.846-0.601,45.059-14.385,79.16,5.273l0,0c34.131,19.688,43.77,64.028,44.15,65.903c1.582,7.485-2.725,14.941-9.99,17.329
		C176.182,172.049,143.993,172.215,121.059,158.979z"/>
</g>
<path style="fill:#10BB67;" d="M265.902,146.1C263.2,148.801,259.6,150,256,150V0c3.6,0,7.2,1.199,9.902,3.9
	C267.4,5.099,301,35.7,301,75S267.4,144.901,265.902,146.1z"/>
<path style="fill:#994C0F;" d="M376,362H136c-9.602,0-16.802,9-14.7,18.6l30,120c1.802,6.599,7.8,11.4,14.7,11.4h180
	c6.899,0,12.898-4.801,14.7-11.4l30-120C392.802,371,385.602,362,376,362z"/>
<path style="fill:#713708;" d="M390.7,380.6l-30,120c-1.802,6.599-7.8,11.4-14.7,11.4h-90V362h120
	C385.602,362,392.802,371,390.7,380.6z"/>
<path style="fill:#BF6015;" d="M406,300H106c-8.401,0-14.993,6.599-14.993,15v32c0,24.901,20.09,45,44.993,45h240
	c24.902,0,45-20.099,45-45v-32C421,306.599,414.401,300,406,300z"/>
<path style="fill:#994C10;" d="M421,315v32c0,24.901-20.098,45-45,45H256v-92h150C414.401,300,421,306.599,421,315z"/>
<g>
</g>
<g>
</g>
<g>
</g>
<g>
</g>
<g>
</g>
<g>
</g>
<g>
</g>
<g>
</g>
<g>
</g>
<g>
</g>
<g>
</g>
<g>
</g>
<g>
</g>
<g>
</g>
<g>
</g>
</svg>
